<mxfile host="app.diagrams.net" modified="2021-11-23T15:33:51.161Z" agent="5.0 (Macintosh; Intel Mac OS X 10_15_7) AppleWebKit/605.1.15 (KHTML, like Gecko) Version/15.1 Safari/605.1.15" etag="pUNxt1ob33sojuF_hnEH" version="15.7.4" type="github">
  <diagram id="6MGdmcKs9yKgFIxDK5bO" name="Page-1">
    <mxGraphModel dx="1113" dy="618" grid="1" gridSize="10" guides="1" tooltips="1" connect="1" arrows="1" fold="1" page="1" pageScale="1" pageWidth="1654" pageHeight="1169" math="0" shadow="0">
      <root>
        <mxCell id="0" />
        <mxCell id="1" parent="0" />
        <mxCell id="8IUe3LPVnhSWRVFbozZq-3" style="rounded=0;orthogonalLoop=1;jettySize=auto;html=1;endArrow=none;endFill=0;entryX=0;entryY=0.5;entryDx=0;entryDy=0;exitX=0.5;exitY=0.5;exitDx=0;exitDy=0;exitPerimeter=0;" parent="1" source="8IUe3LPVnhSWRVFbozZq-1" target="8IUe3LPVnhSWRVFbozZq-4" edge="1">
          <mxGeometry relative="1" as="geometry">
            <mxPoint x="210" y="380" as="targetPoint" />
          </mxGeometry>
        </mxCell>
        <mxCell id="8IUe3LPVnhSWRVFbozZq-36" style="rounded=0;orthogonalLoop=1;jettySize=auto;html=1;exitX=0.5;exitY=0.5;exitDx=0;exitDy=0;exitPerimeter=0;startArrow=none;startFill=0;endArrow=none;endFill=0;" parent="1" source="8IUe3LPVnhSWRVFbozZq-1" target="8IUe3LPVnhSWRVFbozZq-8" edge="1">
          <mxGeometry relative="1" as="geometry" />
        </mxCell>
        <mxCell id="8IUe3LPVnhSWRVFbozZq-37" style="rounded=0;orthogonalLoop=1;jettySize=auto;html=1;entryX=0;entryY=0.5;entryDx=0;entryDy=0;startArrow=none;startFill=0;endArrow=none;endFill=0;" parent="1" source="8IUe3LPVnhSWRVFbozZq-1" target="8IUe3LPVnhSWRVFbozZq-24" edge="1">
          <mxGeometry relative="1" as="geometry" />
        </mxCell>
        <mxCell id="8IUe3LPVnhSWRVFbozZq-1" value="Joueur&amp;nbsp;" style="shape=umlActor;verticalLabelPosition=bottom;verticalAlign=top;html=1;outlineConnect=0;" parent="1" vertex="1">
          <mxGeometry x="50" y="350" width="30" height="60" as="geometry" />
        </mxCell>
        <mxCell id="8IUe3LPVnhSWRVFbozZq-11" value="&amp;lt;&amp;lt;include&amp;gt;&amp;gt;" style="rounded=0;orthogonalLoop=1;jettySize=auto;html=1;endArrow=classic;endFill=1;dashed=1;" parent="1" source="8IUe3LPVnhSWRVFbozZq-4" target="8IUe3LPVnhSWRVFbozZq-10" edge="1">
          <mxGeometry x="-0.1824" y="-14" relative="1" as="geometry">
            <mxPoint x="4" y="-10" as="offset" />
          </mxGeometry>
        </mxCell>
        <mxCell id="8IUe3LPVnhSWRVFbozZq-12" value="&amp;lt;&amp;lt;include&amp;gt;&amp;gt;" style="rounded=0;orthogonalLoop=1;jettySize=auto;html=1;dashed=1;endArrow=classic;endFill=1;startArrow=none;startFill=0;" parent="1" source="8IUe3LPVnhSWRVFbozZq-4" target="8IUe3LPVnhSWRVFbozZq-13" edge="1">
          <mxGeometry relative="1" as="geometry">
            <mxPoint x="330" y="100" as="targetPoint" />
          </mxGeometry>
        </mxCell>
        <mxCell id="nqZ6v-bpkZ9vvk-nfeYM-8" value="" style="edgeStyle=none;rounded=0;orthogonalLoop=1;jettySize=auto;html=1;fontColor=#000000;startArrow=none;startFill=0;endArrow=classic;endFill=1;" edge="1" parent="1" source="8IUe3LPVnhSWRVFbozZq-4" target="8IUe3LPVnhSWRVFbozZq-8">
          <mxGeometry relative="1" as="geometry" />
        </mxCell>
        <mxCell id="8IUe3LPVnhSWRVFbozZq-4" value="Se connecte" style="ellipse;whiteSpace=wrap;html=1;" parent="1" vertex="1">
          <mxGeometry x="210" y="250" width="120" height="50" as="geometry" />
        </mxCell>
        <mxCell id="8IUe3LPVnhSWRVFbozZq-7" value="Mode de jeu : en équipe ou pas&amp;nbsp;" style="text;html=1;align=center;verticalAlign=middle;resizable=0;points=[];autosize=1;strokeColor=#d6b656;fillColor=#fff2cc;" parent="1" vertex="1">
          <mxGeometry y="270" width="190" height="20" as="geometry" />
        </mxCell>
        <mxCell id="8IUe3LPVnhSWRVFbozZq-34" style="rounded=0;orthogonalLoop=1;jettySize=auto;html=1;dashed=1;startArrow=classic;startFill=1;endArrow=none;endFill=0;" parent="1" source="8IUe3LPVnhSWRVFbozZq-8" target="8IUe3LPVnhSWRVFbozZq-14" edge="1">
          <mxGeometry relative="1" as="geometry" />
        </mxCell>
        <mxCell id="nqZ6v-bpkZ9vvk-nfeYM-4" value="&amp;lt;&amp;lt;extends&amp;gt;&amp;gt;" style="edgeLabel;html=1;align=center;verticalAlign=middle;resizable=0;points=[];" vertex="1" connectable="0" parent="8IUe3LPVnhSWRVFbozZq-34">
          <mxGeometry x="-0.0052" y="4" relative="1" as="geometry">
            <mxPoint x="-55" y="-11" as="offset" />
          </mxGeometry>
        </mxCell>
        <mxCell id="8IUe3LPVnhSWRVFbozZq-35" style="rounded=0;orthogonalLoop=1;jettySize=auto;html=1;dashed=1;startArrow=none;startFill=0;endArrow=classic;endFill=1;" parent="1" source="8IUe3LPVnhSWRVFbozZq-8" target="8IUe3LPVnhSWRVFbozZq-18" edge="1">
          <mxGeometry relative="1" as="geometry" />
        </mxCell>
        <mxCell id="nqZ6v-bpkZ9vvk-nfeYM-3" value="&amp;lt;&amp;lt;extends&amp;gt;&amp;gt;" style="edgeLabel;html=1;align=center;verticalAlign=middle;resizable=0;points=[];" vertex="1" connectable="0" parent="8IUe3LPVnhSWRVFbozZq-35">
          <mxGeometry x="0.0448" y="-3" relative="1" as="geometry">
            <mxPoint as="offset" />
          </mxGeometry>
        </mxCell>
        <mxCell id="8IUe3LPVnhSWRVFbozZq-8" value="Choisir mode de jeu" style="ellipse;whiteSpace=wrap;html=1;" parent="1" vertex="1">
          <mxGeometry x="240" y="380" width="120" height="50" as="geometry" />
        </mxCell>
        <mxCell id="8IUe3LPVnhSWRVFbozZq-10" value="Se déconnecter&amp;nbsp;" style="ellipse;whiteSpace=wrap;html=1;" parent="1" vertex="1">
          <mxGeometry x="630" y="290" width="120" height="50" as="geometry" />
        </mxCell>
        <mxCell id="8IUe3LPVnhSWRVFbozZq-13" value="Accèder aux options" style="ellipse;whiteSpace=wrap;html=1;" parent="1" vertex="1">
          <mxGeometry x="620" y="170" width="120" height="50" as="geometry" />
        </mxCell>
        <mxCell id="8IUe3LPVnhSWRVFbozZq-17" value="&amp;lt;&amp;lt;include&amp;gt;&amp;gt;" style="rounded=0;orthogonalLoop=1;jettySize=auto;html=1;startArrow=none;startFill=0;endArrow=classic;endFill=1;dashed=1;" parent="1" source="8IUe3LPVnhSWRVFbozZq-14" target="8IUe3LPVnhSWRVFbozZq-16" edge="1">
          <mxGeometry relative="1" as="geometry" />
        </mxCell>
        <mxCell id="8IUe3LPVnhSWRVFbozZq-14" value="Multijoueur" style="ellipse;whiteSpace=wrap;html=1;" parent="1" vertex="1">
          <mxGeometry x="590" y="490" width="120" height="50" as="geometry" />
        </mxCell>
        <mxCell id="8IUe3LPVnhSWRVFbozZq-16" value="Choisir la taille de l&#39;équipe&amp;nbsp;" style="ellipse;whiteSpace=wrap;html=1;" parent="1" vertex="1">
          <mxGeometry x="830" y="540" width="120" height="60" as="geometry" />
        </mxCell>
        <mxCell id="8IUe3LPVnhSWRVFbozZq-21" value="&amp;lt;&amp;lt;extends&amp;gt;&amp;gt;" style="rounded=0;orthogonalLoop=1;jettySize=auto;html=1;startArrow=none;startFill=0;endArrow=classic;endFill=1;dashed=1;" parent="1" source="8IUe3LPVnhSWRVFbozZq-18" target="8IUe3LPVnhSWRVFbozZq-20" edge="1">
          <mxGeometry relative="1" as="geometry" />
        </mxCell>
        <mxCell id="8IUe3LPVnhSWRVFbozZq-23" value="&amp;lt;&amp;lt;extends&amp;gt;&amp;gt;" style="rounded=0;orthogonalLoop=1;jettySize=auto;html=1;dashed=1;startArrow=none;startFill=0;endArrow=classic;endFill=1;" parent="1" source="8IUe3LPVnhSWRVFbozZq-18" target="8IUe3LPVnhSWRVFbozZq-22" edge="1">
          <mxGeometry x="0.3333" relative="1" as="geometry">
            <mxPoint as="offset" />
          </mxGeometry>
        </mxCell>
        <mxCell id="8IUe3LPVnhSWRVFbozZq-18" value="Solo" style="ellipse;whiteSpace=wrap;html=1;" parent="1" vertex="1">
          <mxGeometry x="520" y="370" width="120" height="50" as="geometry" />
        </mxCell>
        <mxCell id="8IUe3LPVnhSWRVFbozZq-20" value="Choisir son adversaire" style="ellipse;whiteSpace=wrap;html=1;" parent="1" vertex="1">
          <mxGeometry x="800" y="340" width="120" height="50" as="geometry" />
        </mxCell>
        <mxCell id="8IUe3LPVnhSWRVFbozZq-22" value="Choix aléatoire de l&#39;adversaire" style="ellipse;whiteSpace=wrap;html=1;" parent="1" vertex="1">
          <mxGeometry x="840" y="450" width="120" height="50" as="geometry" />
        </mxCell>
        <mxCell id="8IUe3LPVnhSWRVFbozZq-29" value="" style="rounded=0;orthogonalLoop=1;jettySize=auto;html=1;startArrow=none;startFill=0;endArrow=none;endFill=0;" parent="1" target="8IUe3LPVnhSWRVFbozZq-28" edge="1" source="8IUe3LPVnhSWRVFbozZq-1">
          <mxGeometry relative="1" as="geometry">
            <mxPoint x="150" y="410" as="sourcePoint" />
          </mxGeometry>
        </mxCell>
        <mxCell id="8IUe3LPVnhSWRVFbozZq-39" value="&amp;lt;&amp;lt;extends&amp;gt;&amp;gt;" style="rounded=0;orthogonalLoop=1;jettySize=auto;html=1;entryX=0;entryY=0.5;entryDx=0;entryDy=0;dashed=1;startArrow=none;startFill=0;endArrow=classic;endFill=1;" parent="1" source="8IUe3LPVnhSWRVFbozZq-24" target="8IUe3LPVnhSWRVFbozZq-26" edge="1">
          <mxGeometry relative="1" as="geometry" />
        </mxCell>
        <mxCell id="8IUe3LPVnhSWRVFbozZq-24" value="Choisir son animal" style="ellipse;whiteSpace=wrap;html=1;" parent="1" vertex="1">
          <mxGeometry x="410" y="550" width="120" height="50" as="geometry" />
        </mxCell>
        <mxCell id="8IUe3LPVnhSWRVFbozZq-26" value="Choisir personnage&amp;nbsp; aléatoire&amp;nbsp;" style="ellipse;whiteSpace=wrap;html=1;fillColor=rgba(255, 255, 255, 1);strokeColor=rgba(0, 0, 0, 1);fontColor=rgba(0, 0, 0, 1);" parent="1" vertex="1">
          <mxGeometry x="660" y="630" width="120" height="50" as="geometry" />
        </mxCell>
        <mxCell id="8IUe3LPVnhSWRVFbozZq-28" value="Choisir sa carte" style="ellipse;whiteSpace=wrap;html=1;" parent="1" vertex="1">
          <mxGeometry x="340" y="670" width="120" height="50" as="geometry" />
        </mxCell>
        <mxCell id="nqZ6v-bpkZ9vvk-nfeYM-5" value="" style="endArrow=none;dashed=1;html=1;dashPattern=1 3;strokeWidth=2;rounded=0;" edge="1" parent="1">
          <mxGeometry width="50" height="50" relative="1" as="geometry">
            <mxPoint x="490" y="480" as="sourcePoint" />
            <mxPoint x="490" y="370" as="targetPoint" />
          </mxGeometry>
        </mxCell>
        <mxCell id="nqZ6v-bpkZ9vvk-nfeYM-7" value="[XOR]" style="edgeLabel;html=1;align=center;verticalAlign=middle;resizable=0;points=[];" vertex="1" connectable="0" parent="nqZ6v-bpkZ9vvk-nfeYM-5">
          <mxGeometry x="0.7556" y="-1" relative="1" as="geometry">
            <mxPoint x="-1" y="46" as="offset" />
          </mxGeometry>
        </mxCell>
        <mxCell id="nqZ6v-bpkZ9vvk-nfeYM-9" value="" style="rounded=0;orthogonalLoop=1;jettySize=auto;html=1;startArrow=classic;startFill=1;endArrow=none;endFill=0;" edge="1" parent="1" source="8IUe3LPVnhSWRVFbozZq-24" target="8IUe3LPVnhSWRVFbozZq-18">
          <mxGeometry x="-0.2424" y="-17" relative="1" as="geometry">
            <mxPoint y="1" as="offset" />
            <mxPoint x="644.131702461257" y="415.7832076616048" as="sourcePoint" />
            <mxPoint x="885.8405094052171" y="464.2410439559185" as="targetPoint" />
          </mxGeometry>
        </mxCell>
        <mxCell id="nqZ6v-bpkZ9vvk-nfeYM-10" value="" style="rounded=0;orthogonalLoop=1;jettySize=auto;html=1;startArrow=classic;startFill=1;endArrow=none;endFill=0;" edge="1" parent="1" source="8IUe3LPVnhSWRVFbozZq-24" target="8IUe3LPVnhSWRVFbozZq-14">
          <mxGeometry x="-0.2424" y="-17" relative="1" as="geometry">
            <mxPoint y="1" as="offset" />
            <mxPoint x="494.69035864956436" y="560.7609082282186" as="sourcePoint" />
            <mxPoint x="575.2690352579996" y="429.2348129626457" as="targetPoint" />
          </mxGeometry>
        </mxCell>
      </root>
    </mxGraphModel>
  </diagram>
</mxfile>
